<svg width="300" height="200" viewBox="0 0 300 200" fill="none" xmlns="http://www.w3.org/2000/svg">
<path d="M283.91 81.1188C283.91 79.887 285.102 79.3481 287.042 79.3481C288.983 79.3481 290.175 79.81 290.175 81.1188C290.175 82.6971 288.234 82.8896 287.042 82.8896C285.102 82.8896 283.91 82.4084 283.91 81.1188ZM292 81.1188C292 78.6745 290.175 77 287.042 77C284.794 77 282.085 78.1356 282.085 81.1188C282.085 84.1021 284.487 85.2762 287.042 85.2762C289.656 85.2762 292 83.9866 292 81.1188ZM283.91 92.5515V90.8193C283.91 89.7607 284.583 89.3757 285.14 89.3757C285.736 89.3757 286.37 89.7992 286.37 90.8193V92.5515H283.91ZM288.061 92.5515V90.8962L291.885 89.4142V86.9121L287.619 88.7021C287.235 87.6435 286.216 87.0084 285.121 87.0084C283.334 87.0084 282.2 88.1632 282.2 90.4921V94.8033H291.865V92.5515H288.042H288.061ZM285.813 96.9397C283.488 97.19 282.085 98.4217 282.085 100.847C282.085 103.772 284.372 105.177 287.042 105.177C289.713 105.177 292 103.772 292 100.905C292 98.6912 290.693 97.1322 288.484 96.9205L288.349 99.1146C289.252 99.2494 290.175 99.7498 290.175 100.808C290.175 102.502 288.484 102.675 287.158 102.675C286.005 102.675 283.891 102.541 283.891 100.905C283.891 99.6728 284.871 99.2879 285.966 99.2879L285.813 96.9205V96.9397ZM291.865 107.429H282.2V109.681H291.865V107.429ZM291.865 117.149V118.689L283.987 121.018V121.095H291.865V123H282.2V119.439L288.003 117.746L282.2 115.975V112.414H291.865V114.666H283.987V114.743L291.865 117.149ZM92.7004 123H56.0955C53.2517 112.453 47.2566 90.2226 47.2566 90.2226H47.1605V123H32.2111V77.7122H58.19C60.9378 88.1439 66.6639 109.643 66.6639 109.643H66.7599V77.7122H81.7478V84.5833C78.0969 88.4711 75.8679 93.3983 75.8679 99.5958C75.8679 108.507 80.8639 119.536 92.6812 123H92.7004ZM270.575 77.7122V123H254.876V87.5473H254.665L245.672 123H231.222L222.211 87.5473H221.999V123H194.56L191.812 113.223H177.074L174.326 123H148.117C148.117 123 147.233 116.341 146.983 114.647C146.215 109.046 144.524 107.66 141.18 107.66H136.607V122.961H109.744C117.488 121.191 124.444 117.688 128.46 115.282L122.83 93.8988L107.842 97.8443L111.051 109.97C110.09 110.644 106.996 111.741 104.864 111.741C97.7348 111.741 94.3145 104.542 94.3145 98.3833C94.3145 88.4134 104.46 84.6025 113.395 84.6025C115.47 84.6025 118.141 84.7758 118.526 84.8142L116.7 77.7122H147.944C160.434 77.7122 165.295 83.6402 165.295 89.9724C165.295 99.5188 156.187 101.328 154.458 101.636C154.419 101.636 154.419 101.925 154.458 101.925C158.09 102.637 160.76 104.388 162.49 107.449C162.413 107.314 172.021 80.2142 172.904 77.6929H196.904L207.05 106.101H207.184V77.6929H233.009C233.009 77.6929 238.985 102.502 239.024 102.502C240.984 94.2067 244.904 77.6929 244.904 77.6929H270.633L270.575 77.7122ZM8.05765 77.7122H25.4281C25.4281 77.7122 25.3897 107.814 25.3897 123H8L8.03843 77.7122H8.05765ZM184.299 87.4318L179.438 102.387H189.468L184.587 87.4318H184.299ZM136.665 97.4787H141.834C146.042 97.4787 147.809 95.2845 147.809 92.6092C147.809 89.2025 144.889 87.8552 141.834 87.8552H136.665V97.4787Z" fill="black"/>
</svg>
